<?xml version="1.0" encoding="UTF-8"?>
<svg id="b" data-name="Layer 2" xmlns="http://www.w3.org/2000/svg" xmlns:xlink="http://www.w3.org/1999/xlink" viewBox="0 0 557.65 149.92">
  <defs>
    <linearGradient id="d" x1="406.76" y1="74.96" x2="605.56" y2="74.96" gradientUnits="userSpaceOnUse">
      <stop offset=".18" stop-color="#605da9"/>
      <stop offset=".33" stop-color="#604ca0"/>
      <stop offset=".61" stop-color="#623494"/>
    </linearGradient>
    <linearGradient id="e" x1="429.9" y1="72.92" x2="528.25" y2="72.92" gradientUnits="userSpaceOnUse">
      <stop offset=".15" stop-color="#203062"/>
      <stop offset=".48" stop-color="#353f86"/>
      <stop offset=".75" stop-color="#454b9f"/>
    </linearGradient>
  </defs>
  <g id="c" data-name="Layer 1">
    <g>
      <g>
        <path d="M557.65,74.96c0,10.12-2,19.95-5.94,29.2-3.81,8.93-9.25,16.95-16.18,23.83-6.93,6.88-14.99,12.27-23.98,16.05-9.3,3.91-19.17,5.89-29.35,5.89-9.46,0-18.69-1.72-27.42-5.11l-2.76-1.07,10.69-16.53,1.77.59c5.7,1.88,11.66,2.84,17.72,2.84,30.97,0,56.16-24.98,56.16-55.68s-25.19-55.68-56.16-55.68-56.16,24.98-56.16,55.68c0,8.84,2.04,17.3,6.06,25.14l1.03,2.01-16.58,9.9-1.19-2.25c-.96-1.82-1.86-3.71-2.66-5.6-3.94-9.25-5.94-19.08-5.94-29.2s2-19.95,5.94-29.2c3.81-8.93,9.25-16.95,16.18-23.83,6.93-6.88,14.99-12.27,23.98-16.05,9.3-3.91,19.17-5.89,29.35-5.89s20.04,1.98,29.35,5.89c8.98,3.77,17.05,9.17,23.98,16.05,6.93,6.88,12.37,14.9,16.18,23.83,1.97,4.63,3.46,9.4,4.45,14.28.99,4.88,1.49,9.87,1.49,14.93Z" style="fill: url(#d);"/>
        <path d="M522.97,72.92c0,5.48-1.08,10.8-3.22,15.81-2.06,4.83-5,9.17-8.75,12.89-3.74,3.71-8.1,6.63-12.95,8.67-5.02,2.11-10.36,3.18-15.85,3.18-3.12,0-6.24-.35-9.25-1.05l-4.14-.96,11.8-18.24h1.62c11.29-.02,20.48-9.13,20.48-20.3s-9.21-20.29-20.52-20.29-20.52,9.1-20.52,20.29c0,2.61.5,5.15,1.48,7.56l.97,2.37-17.37,10.37-1.41-2.95c-.26-.54-.49-1.04-.69-1.53-2.14-5.01-3.22-10.33-3.22-15.81s1.08-10.8,3.22-15.81c2.06-4.83,5-9.17,8.75-12.89,3.74-3.71,8.1-6.63,12.95-8.67,5.02-2.11,10.36-3.18,15.85-3.18s10.82,1.07,15.85,3.18c4.85,2.04,9.21,4.95,12.95,8.67,3.75,3.72,6.69,8.06,8.75,12.89,1.07,2.51,1.87,5.09,2.41,7.73.54,2.64.81,5.34.81,8.08Z" style="fill: url(#e);"/>
        <polygon points="434.43 109.18 433.66 120.98 415.5 118.86 482.98 77.81 441.53 144.62 434.43 109.18" style="fill: #1b98d5;"/>
      </g>
      <g>
        <g>
          <path d="M31.59,55.94h-3.39c-.33,3.2-1.61,5.63-3.83,7.29-2.23,1.66-5.29,2.48-9.2,2.48-2.52,0-4.79-.39-6.81-1.17-2.02-.78-3.61-1.97-4.79-3.57-1.17-1.6-1.76-3.59-1.76-5.96,0-1.34.2-2.77.59-4.31h4.64c-.24,1.08-.36,2.15-.36,3.22,0,2.3.71,4.01,2.12,5.13,1.41,1.12,3.54,1.68,6.37,1.68,2.61,0,4.55-.37,5.81-1.1,1.26-.74,2.02-1.97,2.29-3.7h-1.61c-2.59,0-4.72-.41-6.4-1.23-1.68-.82-2.9-1.9-3.67-3.24-.77-1.34-1.15-2.8-1.15-4.38s.4-3.09,1.18-4.47,2.03-2.5,3.72-3.36,3.82-1.28,6.38-1.28h6.55v13.09h3.32v4.87ZM14.08,34.78c-.55-.55-.82-1.21-.82-1.97s.27-1.43.82-1.97c.55-.55,1.21-.82,1.97-.82s1.43.27,1.97.82c.55.55.82,1.21.82,1.97s-.27,1.43-.82,1.97c-.55.55-1.21.82-1.97.82s-1.43-.27-1.97-.82ZM16.75,49.92c1.01.77,2.67,1.15,4.97,1.15h1.65v-8.13h-1.71c-2.28,0-3.92.39-4.92,1.17-1,.78-1.5,1.75-1.5,2.91s.5,2.13,1.51,2.9ZM20.63,34.78c-.55-.55-.82-1.21-.82-1.97s.27-1.43.82-1.97,1.21-.82,1.97-.82,1.43.27,1.97.82c.55.55.82,1.21.82,1.97s-.27,1.43-.82,1.97c-.55.55-1.21.82-1.97.82s-1.43-.27-1.97-.82Z" style="fill: #223368;"/>
          <path d="M29.69,51.76c.49-.46,1.12-.69,1.89-.69h6.58v4.87h-6.58c-.77,0-1.4-.23-1.89-.69-.49-.46-.74-1.04-.74-1.74s.25-1.28.74-1.74Z" style="fill: #223368;"/>
          <path d="M42.28,40.14h4.97v15.79h-9.08c-.75,0-1.37-.24-1.88-.72-.5-.48-.76-1.07-.76-1.78s.24-1.27.72-1.71c.48-.44,1.12-.66,1.91-.66h4.11v-10.92ZM39.45,63.6c-.55-.55-.82-1.21-.82-1.97s.27-1.43.82-1.97c.55-.55,1.21-.82,1.97-.82s1.43.27,1.97.82c.55.55.82,1.21.82,1.97s-.27,1.43-.82,1.97c-.55.55-1.21.82-1.97.82s-1.43-.27-1.97-.82ZM46,63.6c-.55-.55-.82-1.21-.82-1.97s.27-1.43.82-1.97c.55-.55,1.21-.82,1.97-.82s1.43.27,1.97.82c.55.55.82,1.21.82,1.97s-.27,1.43-.82,1.97c-.55.55-1.21.82-1.97.82s-1.43-.27-1.97-.82Z" style="fill: #223368;"/>
          <path d="M74.32,55.94h-3.49c-.4,2.68-1.42,4.7-3.06,6.07-1.65,1.37-3.88,2.06-6.71,2.06-1.38,0-2.86-.14-4.44-.43v-4.8c1.43.2,2.67.3,3.72.3,1.51,0,2.71-.26,3.6-.77.89-.52,1.5-1.32,1.83-2.42h-1.38c-2.59,0-4.72-.41-6.4-1.23-1.68-.82-2.9-1.9-3.67-3.24-.77-1.34-1.15-2.8-1.15-4.38s.4-3.09,1.18-4.47,2.03-2.5,3.72-3.36,3.82-1.28,6.38-1.28h6.55v13.09h3.32v4.87ZM59.49,49.92c1.01.77,2.67,1.15,4.97,1.15h1.65v-8.13h-1.71c-2.28,0-3.92.39-4.92,1.17-1,.78-1.5,1.75-1.5,2.91s.5,2.13,1.51,2.9Z" style="fill: #223368;"/>
          <path d="M72.43,51.76c.49-.46,1.12-.69,1.89-.69h6.58v4.87h-6.58c-.77,0-1.4-.23-1.89-.69-.49-.46-.74-1.04-.74-1.74s.25-1.28.74-1.74Z" style="fill: #223368;"/>
          <path d="M115.12,51.07v4.87h-10.2c-1.47,0-2.69-.22-3.65-.67-.97-.45-1.72-1.12-2.27-2.02-.66.86-1.44,1.52-2.34,1.99-.9.47-1.88.71-2.93.71h-12.83c-.77,0-1.4-.23-1.89-.69-.49-.46-.74-1.04-.74-1.74s.25-1.28.74-1.74c.49-.46,1.12-.69,1.89-.69h4.11v-12.11h4.97v12.11h3.09c1.86,0,2.8-1.4,2.8-4.21v-7.9h4.97v7.9c0,1.45.28,2.51.84,3.19.56.68,1.42,1.02,2.58,1.02h2.47v-13.19h4.97v13.19h3.42Z" style="fill: #223368;"/>
          <path d="M129.27,51.07v4.87c-3.49,0-5.85-.96-7.07-2.9-.79.92-1.78,1.63-2.98,2.14-1.2.5-2.56.76-4.1.76-.75,0-1.37-.24-1.88-.72-.5-.48-.76-1.07-.76-1.78s.24-1.27.72-1.71c.48-.44,1.12-.66,1.91-.66,1.21,0,2.19-.35,2.96-1.05.77-.7,1.15-1.75,1.15-3.16v-6.71h4.97v6.71c0,1.25.35,2.25,1.05,2.99.81.81,2.15,1.22,4.01,1.22ZM116.47,36.36c-.55-.55-.82-1.21-.82-1.97s.27-1.43.82-1.97,1.21-.82,1.97-.82,1.43.27,1.97.82c.55.55.82,1.21.82,1.97s-.27,1.43-.82,1.97-1.21.82-1.97.82-1.43-.27-1.97-.82ZM123.02,36.36c-.55-.55-.82-1.21-.82-1.97s.27-1.43.82-1.97,1.21-.82,1.97-.82,1.43.27,1.97.82c.55.55.82,1.21.82,1.97s-.27,1.43-.82,1.97-1.21.82-1.97.82-1.43-.27-1.97-.82Z" style="fill: #223368;"/>
          <path d="M143.42,51.07v4.87c-3.49,0-5.85-.96-7.07-2.9-.79.92-1.78,1.63-2.98,2.14-1.2.5-2.56.76-4.1.76-.77,0-1.4-.23-1.89-.69-.49-.46-.74-1.04-.74-1.74s.25-1.28.74-1.74c.49-.46,1.12-.69,1.89-.69,1.21,0,2.19-.35,2.96-1.05.77-.7,1.15-1.75,1.15-3.16v-15.07h4.97v15.07c0,1.25.35,2.25,1.05,2.99.81.81,2.15,1.22,4.01,1.22Z" style="fill: #223368;"/>
          <path d="M147.53,31.79h4.97v24.15h-9.08c-.77,0-1.4-.23-1.89-.69-.49-.46-.74-1.04-.74-1.74s.25-1.28.74-1.74c.49-.46,1.12-.69,1.89-.69h4.11v-19.28Z" style="fill: #223368;"/>
          <path d="M189.09,55.94h-3.85c-.64,2.61-1.9,4.61-3.78,6-1.89,1.39-4.3,2.09-7.24,2.09-2.08,0-3.99-.37-5.72-1.1-1.73-.74-3.13-1.89-4.18-3.45-1.05-1.57-1.58-3.54-1.58-5.91,0-1.8.34-3.85,1.02-6.15h4.64c-.55,2.06-.82,3.84-.82,5.33,0,4.3,2.22,6.45,6.65,6.45,2.22,0,3.85-.59,4.9-1.78,1.05-1.18,1.58-3.03,1.58-5.53v-20.1h4.97v19.28h3.42v4.87Z" style="fill: #223368;"/>
          <path d="M187.19,51.76c.49-.46,1.12-.69,1.89-.69h6.58v4.87h-6.58c-.77,0-1.4-.23-1.89-.69-.49-.46-.74-1.04-.74-1.74s.25-1.28.74-1.74Z" style="fill: #223368;"/>
          <path d="M209.81,51.07v4.87c-3.49,0-5.85-.96-7.07-2.9-.79.92-1.78,1.63-2.98,2.14-1.2.5-2.56.76-4.1.76-.75,0-1.37-.24-1.88-.72-.5-.48-.76-1.07-.76-1.78s.24-1.27.72-1.71c.48-.44,1.12-.66,1.91-.66,1.21,0,2.19-.35,2.96-1.05.77-.7,1.15-1.75,1.15-3.16v-6.71h4.97v6.71c0,1.25.35,2.25,1.05,2.99.81.81,2.15,1.22,4.01,1.22ZM197.15,36.39c-.55-.55-.82-1.21-.82-1.97s.27-1.43.82-1.97,1.21-.82,1.97-.82,1.43.27,1.97.82c.55.55.82,1.21.82,1.97s-.27,1.43-.82,1.97c-.55.55-1.21.82-1.97.82s-1.43-.27-1.97-.82ZM200.4,30.8c-.55-.55-.82-1.21-.82-1.97s.27-1.43.82-1.97c.55-.55,1.21-.82,1.97-.82s1.43.27,1.97.82c.55.55.82,1.21.82,1.97s-.27,1.43-.82,1.97c-.55.55-1.21.82-1.97.82s-1.43-.27-1.97-.82ZM203.69,36.39c-.55-.55-.82-1.21-.82-1.97s.27-1.43.82-1.97,1.21-.82,1.97-.82,1.43.27,1.97.82.82,1.21.82,1.97-.27,1.43-.82,1.97-1.21.82-1.97.82-1.43-.27-1.97-.82Z" style="fill: #223368;"/>
          <path d="M226.35,39.12c1.35.83,2.41,1.97,3.19,3.41.78,1.44,1.17,3.02,1.17,4.75s-.38,3.35-1.15,4.66c-.77,1.31-1.79,2.3-3.06,2.98-1.27.68-2.67,1.02-4.18,1.02-1.18,0-2.35-.21-3.5-.62-1.15-.42-2.22-1.04-3.21-1.88-.66.81-1.49,1.43-2.48,1.86-1,.43-2.1.64-3.31.64-.75,0-1.37-.24-1.88-.72-.5-.48-.76-1.07-.76-1.78s.24-1.27.72-1.71c.48-.44,1.12-.66,1.91-.66.7,0,1.24-.13,1.61-.38.37-.25.64-.6.81-1.04.16-.44.36-1.12.58-2.04.22-.94.37-1.56.46-1.84.68-2.5,1.75-4.44,3.21-5.82,1.46-1.38,3.23-2.07,5.31-2.07,1.69,0,3.21.42,4.56,1.25ZM224.55,50.33c.79-.71,1.18-1.73,1.18-3.04s-.36-2.33-1.09-3.17c-.72-.84-1.68-1.27-2.86-1.27-.9,0-1.63.3-2.19.9-.56.6-1.06,1.56-1.5,2.88-.22.64-.38,1.31-.49,2.01-.04.15-.08.33-.12.54-.03.21-.09.44-.18.71.64.5,1.33.88,2.07,1.13.75.25,1.47.38,2.17.38,1.21,0,2.2-.36,2.99-1.07Z" style="fill: #223368;"/>
          <path d="M255.84,31.79v24.15h-21.65v-4.87h7.17l-4.9-16.09h5.13l4.9,16.09h4.38v-19.28h4.97ZM242.22,32.91h-6.84v-2.07h.76c-.5-.46-.76-1.11-.76-1.94,0-.99.37-1.79,1.12-2.42.75-.62,1.66-.94,2.73-.94.83,0,1.66.2,2.47.59l-1.02,1.97c-.46-.18-.88-.26-1.25-.26-.48,0-.88.12-1.18.35-.31.23-.46.58-.46,1.04s.17.87.51,1.17c.34.3.77.44,1.3.44h2.63v2.07Z" style="fill: #223368;"/>
          <path d="M259.33,31.79h4.97v24.15h-4.97v-24.15Z" style="fill: #223368;"/>
          <path d="M309.18,55.94h-22.87c-2.04,0-3.93-.35-5.68-1.05-1.74-.7-3.15-1.75-4.21-3.14-1.06-1.39-1.6-3.09-1.6-5.08,0-1.45.33-3.07.99-4.87h4.64c-.42,1.38-.63,2.58-.63,3.59,0,1.8.55,3.2,1.66,4.19,1.11,1,2.71,1.5,4.82,1.5h5.72c-.64-1.21-.95-2.55-.95-4.05,0-1.62.39-3.13,1.17-4.51s2.01-2.5,3.7-3.36c1.69-.86,3.85-1.28,6.48-1.28l6.74-.03v18.1ZM304.18,42.84h-1.81c-2.28,0-3.92.39-4.9,1.18-.99.79-1.48,1.78-1.48,2.96s.49,2.16,1.48,2.93c.99.77,2.64,1.15,4.97,1.15h1.74v-8.23ZM298.12,34.78c-.55-.55-.82-1.21-.82-1.97s.27-1.43.82-1.97c.55-.55,1.21-.82,1.97-.82s1.42.27,1.97.82c.55.55.82,1.21.82,1.97s-.27,1.43-.82,1.97c-.55.55-1.21.82-1.97.82s-1.43-.27-1.97-.82Z" style="fill: #223368;"/>
          <path d="M332.7,51.07v4.87h-19.97v-4.87h11.68v-1.88c0-1.6-.25-2.86-.76-3.77-.5-.91-1.29-1.57-2.37-1.97-1.07-.41-2.51-.61-4.31-.61h-2.4v-4.97h2.47c3.84,0,6.85.97,9.05,2.9s3.29,4.74,3.29,8.42v1.88h3.32Z" style="fill: #223368;"/>
          <path d="M330.81,51.76c.49-.46,1.12-.69,1.89-.69h6.58v4.87h-6.58c-.77,0-1.4-.23-1.89-.69-.49-.46-.74-1.04-.74-1.74s.25-1.28.74-1.74Z" style="fill: #223368;"/>
          <path d="M368.83,51.07v4.87c-3.69,0-6.12-1.1-7.3-3.29-.9,1.05-2.01,1.86-3.34,2.43-1.33.57-2.84.86-4.52.86h-14.38c-.68,0-1.27-.25-1.76-.74-.49-.49-.74-1.08-.74-1.76s.23-1.21.69-1.65c.46-.44,1.04-.68,1.74-.72h1.81c-.18-.7-.26-1.37-.26-2.01,0-1.23.28-2.39.84-3.47.56-1.09,1.39-1.97,2.48-2.65,1.1-.68,2.4-1.02,3.92-1.02s2.85.33,3.93.99c1.09.66,1.91,1.52,2.47,2.6s.84,2.22.84,3.42v1.97c1.18-.26,2.08-.84,2.7-1.74.61-.9.92-2.09.92-3.59,0-1.27-.41-2.43-1.23-3.47-.82-1.04-1.97-1.86-3.44-2.47-1.47-.6-3.13-.9-4.97-.9-2.35,0-4.77.5-7.27,1.51l-1.61-4.64c3.11-1.16,6.15-1.74,9.11-1.74,2.79,0,5.27.51,7.45,1.53,2.18,1.02,3.88,2.42,5.1,4.19,1.22,1.78,1.83,3.77,1.83,5.99,0,.31-.02.77-.07,1.38.02,1.23.37,2.19,1.05,2.9.81.81,2.15,1.22,4.01,1.22ZM346.27,50.43c.41.43.98.64,1.73.64h2.34v-2.04c0-.59-.22-1.11-.66-1.56-.44-.45-1.02-.67-1.74-.67s-1.28.21-1.68.62c-.4.42-.59.92-.59,1.51s.2,1.07.61,1.5Z" style="fill: #223368;"/>
          <path d="M372.94,31.79h4.97v24.15h-9.08c-.77,0-1.4-.23-1.89-.69-.49-.46-.74-1.04-.74-1.74s.25-1.28.74-1.74c.49-.46,1.12-.69,1.89-.69h4.11v-19.28Z" style="fill: #223368;"/>
          <path d="M381.53,31.79h4.97v24.15h-4.97v-24.15Z" style="fill: #223368;"/>
        </g>
        <g>
          <path d="M23.49,115.33h-4.97v-12.25l-5.6,8.95h-.56l-5.6-8.95v12.25H1.81v-21.08h4.95l5.89,9.36,5.88-9.36h4.97v21.08Z" style="fill: #1b98d5;"/>
          <path d="M33.17,115.36c-2.03,0-3.77-.76-5.22-2.29s-2.18-3.42-2.18-5.66.73-4.14,2.18-5.67c1.45-1.53,3.2-2.29,5.22-2.29s3.6.62,4.6,1.85v-1.85h4.65v15.89h-4.65v-1.8c-1,1.22-2.53,1.83-4.6,1.83ZM34.1,111.07c2.14,0,3.37-1.22,3.68-3.67,0-2.26-1.23-3.49-3.68-3.68-2.14,0-3.37,1.23-3.68,3.68,0,2.25,1.23,3.47,3.68,3.67Z" style="fill: #1b98d5;"/>
          <path d="M49.34,115.33h-4.65v-15.37h4.65v2.98c.34-1.01.96-1.76,1.85-2.25.89-.49,1.82-.73,2.8-.73v5.12c-.27-.04-.54-.06-.82-.06-2.55,0-3.83,1.17-3.83,3.5v6.81Z" style="fill: #1b98d5;"/>
          <path d="M71.14,115.33h-5.27l-4.95-6.65v6.65h-4.65v-24.37h4.65v15.9l4.65-6.59h5.42l-5.63,7.53,5.78,7.53Z" style="fill: #1b98d5;"/>
          <path d="M78.36,115.36c-5.3,0-8.16-2.65-8.59-7.95,0-2.25.76-4.14,2.29-5.67,1.52-1.53,3.51-2.29,5.95-2.29,2.26,0,4.14.76,5.63,2.27,1.49,1.51,2.24,3.41,2.24,5.69,0,.63-.07,1.23-.2,1.8h-10.99c.78,1.4,2.02,2.11,3.73,2.11,1.27,0,2.26-.38,2.97-1.14l3.73,2.07c-1.56,2.07-3.82,3.1-6.75,3.1ZM81.27,105.83c-.27-.86-.71-1.47-1.32-1.83-.61-.36-1.26-.54-1.96-.54-1.77,0-2.89.79-3.38,2.38h6.66Z" style="fill: #1b98d5;"/>
          <path d="M95.61,115.45c-3.98,0-5.97-1.84-5.97-5.51v-5.35h-2.47v-4.33h2.47v-2.86l4.65-1.36v4.22h3.2v4.33h-3.2v5.35c0,.65.27,1.04.82,1.18.36.1.83.15,1.39.15.3,0,.63-.01.98-.04v4.1c-.67.08-1.29.12-1.88.12Z" style="fill: #1b98d5;"/>
          <path d="M102.54,98.55c-.76,0-1.41-.27-1.96-.8s-.83-1.17-.83-1.91.27-1.38.83-1.92,1.2-.79,1.96-.79,1.41.26,1.96.79c.55.53.83,1.17.83,1.92s-.28,1.37-.83,1.91c-.55.54-1.2.8-1.96.8ZM104.88,115.33h-4.65v-15.46h4.65v15.46Z" style="fill: #1b98d5;"/>
          <path d="M122.47,115.45h-4.65v-8.59c0-1.83-.86-2.74-2.59-2.74h-.11c-1.71,0-2.67,1.04-2.88,3.1v8.22h-4.65v-15.48h4.65v1.83c.91-1.22,2.38-1.83,4.42-1.83,1.56,0,2.92.53,4.07,1.59,1.15,1.06,1.73,2.61,1.73,4.65v9.24Z" style="fill: #1b98d5;"/>
          <path d="M133.39,121.39h-4.13v-3.98h4.13c2.16,0,3.33-1.08,3.5-3.23v-1.38c-1,1.3-2.51,1.95-4.53,1.95-2.2,0-4.02-.75-5.46-2.26-1.44-1.51-2.16-3.3-2.16-5.38s.72-3.88,2.16-5.39c1.44-1.51,3.26-2.27,5.46-2.27,2.02,0,3.53.66,4.53,1.97v-1.54h4.51v14.31c0,2.5-.81,4.33-2.42,5.47s-3.48,1.72-5.59,1.73ZM133.13,110.6c2.2,0,3.45-1.17,3.76-3.5,0-2.08-1.25-3.25-3.76-3.5-2.2,0-3.45,1.17-3.74,3.5,0,2.08,1.25,3.25,3.74,3.5Z" style="fill: #1b98d5;"/>
          <path d="M165.57,115.75c-3.12,0-5.78-1.05-7.98-3.16-2.2-2.1-3.3-4.71-3.3-7.81s1.1-5.7,3.3-7.81c2.2-2.1,4.86-3.16,7.98-3.16s5.76,1.05,7.97,3.16c2.2,2.11,3.3,4.71,3.3,7.81s-1.1,5.7-3.3,7.81c-2.2,2.1-4.86,3.16-7.97,3.16ZM165.57,111.06c1.77,0,3.26-.57,4.48-1.72s1.83-2.66,1.83-4.55-.61-3.39-1.83-4.54c-1.22-1.15-2.72-1.73-4.48-1.73s-3.26.58-4.49,1.73c-1.23,1.15-1.84,2.67-1.84,4.54s.61,3.41,1.84,4.55,2.72,1.72,4.49,1.72Z" style="fill: #1b98d5;"/>
          <path d="M183.76,124.34h-4.65v-24.37h4.65v1.83c1-1.22,2.54-1.83,4.62-1.83s3.77.76,5.22,2.29c1.45,1.53,2.18,3.42,2.18,5.66s-.73,4.13-2.18,5.66-3.2,2.29-5.22,2.29-3.62-.61-4.62-1.83v10.3ZM187.45,111.6c2.13,0,3.36-1.23,3.68-3.68,0-2.26-1.23-3.49-3.68-3.68-2.14,0-3.37,1.23-3.7,3.68,0,2.26,1.23,3.49,3.7,3.68Z" style="fill: #1b98d5;"/>
          <path d="M205.05,115.45c-3.98,0-5.97-1.84-5.97-5.51v-5.35h-2.47v-4.33h2.47v-2.86l4.65-1.36v4.22h3.2v4.33h-3.2v5.35c0,.65.27,1.04.82,1.18.36.1.83.15,1.39.15.3,0,.63-.01.98-.04v4.1c-.67.08-1.29.12-1.88.12Z" style="fill: #1b98d5;"/>
          <path d="M211.98,98.55c-.76,0-1.41-.27-1.96-.8s-.83-1.17-.83-1.91.27-1.38.83-1.92,1.2-.79,1.96-.79,1.41.26,1.96.79c.55.53.83,1.17.83,1.92s-.28,1.37-.83,1.91c-.55.54-1.2.8-1.96.8ZM214.32,115.33h-4.65v-15.46h4.65v15.46Z" style="fill: #1b98d5;"/>
          <path d="M240.29,115.45h-4.65v-8.86c0-1.5-.75-2.33-2.24-2.47-1.54,0-2.35.94-2.41,2.83v8.5h-4.65v-8.86c0-1.5-.74-2.33-2.23-2.47-1.55,0-2.36.94-2.42,2.83v8.5h-4.65v-15.48h4.65v1.8c.7-1.2,2.08-1.8,4.15-1.8,1.83,0,3.18.66,4.06,1.98.8-1.32,2.3-1.98,4.5-1.98,3.56,0,5.53,2.08,5.89,6.24v9.24Z" style="fill: #1b98d5;"/>
          <path d="M257.41,115.75h-4.63v-1.85c-.91,1.23-2.39,1.85-4.44,1.85-1.56,0-2.92-.53-4.07-1.6-1.15-1.06-1.72-2.61-1.72-4.64v-9.25h4.63v8.59c0,1.83.86,2.74,2.59,2.74h.11c1.71,0,2.67-1.04,2.89-3.1v-8.22h4.63v15.49Z" style="fill: #1b98d5;"/>
          <path d="M282.93,115.45h-4.65v-8.86c0-1.5-.75-2.33-2.24-2.47-1.54,0-2.35.94-2.41,2.83v8.5h-4.65v-8.86c0-1.5-.74-2.33-2.23-2.47-1.55,0-2.36.94-2.42,2.83v8.5h-4.65v-15.48h4.65v1.8c.7-1.2,2.08-1.8,4.15-1.8,1.83,0,3.18.66,4.06,1.98.8-1.32,2.3-1.98,4.5-1.98,3.56,0,5.53,2.08,5.89,6.24v9.24Z" style="fill: #1b98d5;"/>
          <path d="M306.36,115.33h-4.97v-16.46h-5.57v-4.63h16.11v4.63h-5.57v16.46Z" style="fill: #1b98d5;"/>
          <path d="M316.46,115.36c-2.03,0-3.77-.76-5.22-2.29s-2.18-3.42-2.18-5.66.73-4.14,2.18-5.67c1.45-1.53,3.2-2.29,5.22-2.29s3.6.62,4.6,1.85v-1.85h4.65v15.89h-4.65v-1.8c-1,1.22-2.53,1.83-4.6,1.83ZM317.38,111.07c2.14,0,3.37-1.22,3.68-3.67,0-2.26-1.23-3.49-3.68-3.68-2.14,0-3.37,1.23-3.68,3.68,0,2.25,1.23,3.47,3.68,3.67Z" style="fill: #1b98d5;"/>
          <path d="M332.63,115.33h-4.65v-15.37h4.65v2.98c.34-1.01.96-1.76,1.85-2.25.89-.49,1.82-.73,2.8-.73v5.12c-.27-.04-.54-.06-.82-.06-2.55,0-3.83,1.17-3.83,3.5v6.81Z" style="fill: #1b98d5;"/>
          <path d="M346.23,121.39h-4.13v-3.98h4.13c2.16,0,3.33-1.08,3.5-3.23v-1.38c-1,1.3-2.51,1.95-4.53,1.95-2.2,0-4.02-.75-5.46-2.26-1.44-1.51-2.16-3.3-2.16-5.38s.72-3.88,2.16-5.39,3.26-2.27,5.46-2.27c2.02,0,3.53.66,4.53,1.97v-1.54h4.51v14.31c0,2.5-.81,4.33-2.42,5.47s-3.48,1.72-5.59,1.73ZM345.97,110.6c2.2,0,3.45-1.17,3.75-3.5,0-2.08-1.25-3.25-3.75-3.5-2.2,0-3.45,1.17-3.74,3.5,0,2.08,1.25,3.25,3.74,3.5Z" style="fill: #1b98d5;"/>
          <path d="M365.1,115.36c-5.3,0-8.16-2.65-8.59-7.95,0-2.25.76-4.14,2.29-5.67,1.52-1.53,3.51-2.29,5.95-2.29,2.26,0,4.14.76,5.63,2.27s2.24,3.41,2.24,5.69c0,.63-.07,1.23-.2,1.8h-10.99c.78,1.4,2.02,2.11,3.72,2.11,1.27,0,2.26-.38,2.97-1.14l3.72,2.07c-1.56,2.07-3.82,3.1-6.75,3.1ZM368.01,105.83c-.27-.86-.71-1.47-1.33-1.83-.61-.36-1.26-.54-1.96-.54-1.77,0-2.89.79-3.38,2.38h6.66Z" style="fill: #1b98d5;"/>
          <path d="M382.35,115.45c-3.98,0-5.97-1.84-5.97-5.51v-5.35h-2.47v-4.33h2.47v-2.86l4.65-1.36v4.22h3.2v4.33h-3.2v5.35c0,.65.27,1.04.82,1.18.36.1.83.15,1.39.15.3,0,.63-.01.98-.04v4.1c-.67.08-1.29.12-1.88.12Z" style="fill: #1b98d5;"/>
        </g>
      </g>
    </g>
  </g>
</svg>